<?xml version="1.0" encoding="utf-8"?>
<!-- Generator: Adobe Illustrator 16.0.0, SVG Export Plug-In . SVG Version: 6.00 Build 0)  -->
<!DOCTYPE svg PUBLIC "-//W3C//DTD SVG 1.1//EN" "http://www.w3.org/Graphics/SVG/1.1/DTD/svg11.dtd">
<svg version="1.1" id="Layer_1" xmlns="http://www.w3.org/2000/svg" xmlns:xlink="http://www.w3.org/1999/xlink" x="0px" y="0px"
	 width="611.051px" height="296.259px" viewBox="0.569 247.933 611.051 296.259"
	 enable-background="new 0.569 247.933 611.051 296.259" xml:space="preserve">
<g>
	<path id="path2830" fill="#2E2F32" d="M153.285,543.878c-3.415-1.328-3.225-5.881,0-4.174c2.656,1.518,5.312,3.226,8.157,4.363
		C158.596,544.257,155.94,544.257,153.285,543.878z M147.593,538.945c-4.743-2.656-11.003-8.157-12.521-13.849
		c-0.759-2.656,3.035-6.261-1.139-10.624c-4.363-4.553-2.656-11.951-3.035-17.643c-0.569-8.727-2.087-16.884-1.708-25.61
		c0.379-9.296-6.829-10.435-12.521-15.936c-4.363-4.174-6.45-11.572-9.296-16.694c-0.379-0.759-6.26-12.711-2.276-11.763
		c-3.604-0.948,6.83-15.176,5.881-18.971c-0.189-0.948-5.691-11.003-5.691-4.742c0,3.604-9.675-3.984-10.434-4.554
		c-4.933-3.794-3.036-5.312-9.106-7.967c-4.933-2.087-5.312-6.64-11.003-4.553c-2.656,1.139-10.813-4.363-12.9-5.501
		c-5.312-3.225-7.209-14.607-11.003-20.678c-13.279-21.626-0.189,9.865-0.948,9.865c-3.225-0.189-5.312-10.054-5.691-12.141
		c-1.518-6.83-5.501-11.383-7.019-17.833c-1.518-5.881,0.569-9.865,3.794-14.608c3.415-5.122,5.881-7.588,8.917-8.727
		c7.588-3.035-3.604-8.537-1.708-10.624c4.933-5.501,0-11.952-4.363-15.177c-9.485-7.209-35.286,2.087-43.253,7.399
		c2.845-1.897,9.295-2.466,11.192-5.502c0.19-0.189-4.743-1.328-5.881-1.328c1.897-1.708,2.466-4.174,3.794-5.691
		c1.138-1.138,13.659-2.656,12.71-5.501c-0.19-0.569-6.071,0.759-7.209-0.379c-0.569-0.569,11.003-2.846,12.141-3.415
		c-0.569-0.569-2.086-1.897-2.086-2.466c0-7.209,36.993-3.604,41.736-2.277c3.225,0.949,34.716-3.794,35.665,1.518
		c-0.759,0.38-0.949,0.949-0.759,1.708c3.604,1.328,6.45-1.708,8.347,2.846c5.122-7.019,11.952-1.518,18.402-1.518
		c3.604,0,8.537-10.813,11.193-8.158c0.759,0.759,1.897,7.399,2.466,7.588c0,0,11.572-5.881,10.813-2.845
		c-2.466,7.968-13.659,2.276-16.694,5.691c-0.569,0.569,1.328,2.087,1.708,2.466c-2.276,0.569-25.231,9.485-20.678,12.331
		c3.415,2.276,5.881,4.553,10.055,6.26c3.984,1.708,1.897,9.296,4.363,9.296c9.485-0.19,11.952-24.662,22.196-22.955
		c8.727,1.328,4.553,14.417,14.418,4.173c0.379,2.276,0.948,12.71,1.138,12.9c1.897-0.19,3.794,0,5.691,0.189
		c3.225,2.846-6.261,5.881-7.399,6.45c-2.846,0.949-21.248,0.569-21.248,5.501c0,1.708,8.348-3.035,10.055-1.707
		c0.949,0.759-4.743,9.485,4.933,6.64c-1.897,1.328-9.106,5.691-11.003,4.553c-1.708-0.948,4.363-2.466,3.983-3.604
		c-0.948-2.656-29.405,13.47-28.456,16.125c1.708,4.173-9.675,10.434-12.9,13.469c-2.276,2.087-2.466,15.556-3.984,14.987
		c-6.26-2.466,0.949-10.434-10.624-11.762c-2.466-0.19-3.035,2.276-4.743,3.035c-3.035,1.328-5.312-2.845-9.106-0.759
		c-5.501,3.225-11.003,8.537-10.813,15.746c0.19,7.209,11.003,15.746,14.418,5.312c1.138-3.604,8.157-4.553,5.501,1.518
		c-7.019,15.936,8.158,1.518,6.071,14.607c-1.328,8.916,2.656,7.778,8.916,8.347c3.415,0.19,4.363,4.363,7.02-0.759
		c1.138-2.086,5.881-5.312,8.157-5.691c0.759-0.189-2.276,7.588,0,7.399c2.846-0.38-0.759-6.64,4.553-6.071
		c3.415,0.38,12.9,3.415,15.936,5.313c3.225,2.087,5.312,5.691,8.727,7.398c3.984,1.897,7.019-0.189,10.434,3.604
		c4.363,4.742-0.949,13.279-0.949,13.279c-4.174-4.174,15.746,0,5.122,0.38c0.949,0,11.003-3.794,10.434,1.138
		c-0.379,2.656,7.778,0.949,10.434,1.897c17.833,7.398,3.604,16.125,2.466,29.404c-0.379,3.795-1.707,15.936-7.588,14.987
		c-3.036-0.379-10.434,3.794-9.296,7.209c1.328,3.794-2.276,9.865-4.363,12.9c-0.759,1.328-11.952,10.244-11.952,5.312
		c0,2.087,5.501,3.604,3.984,7.02c-1.518,1.897-3.415,2.846-5.881,2.846c-4.174,0-0.569,2.846-2.656,5.312
		c-1.138-0.569-2.466-0.948-3.794-0.948c3.225-2.846-0.379,11.951-0.19,10.813c-0.569,3.604,5.312,2.655,2.656,7.588
		C150.628,532.495,151.198,541.032,147.593,538.945z M111.169,325.144c-0.379,0.759,6.64-7.968,6.829-4.553
		c0,0.949-1.518,1.897-1.897,2.846c3.225,1.518,4.174-1.518,6.26-0.949c6.64,1.708-4.743-4.743-3.794-3.984
		c-0.569-1.328-0.949-2.656-1.328-4.173c-2.086-2.846-6.45,0.189-9.106,0c-0.569,0-2.846,2.086-3.604,2.846
		c1.708,0,10.813-0.759,11.762,0.948c-0.569-0.948-12.331,6.64-9.296,10.055C108.893,330.266,110.79,325.903,111.169,325.144z
		 M120.085,328.179c1.518-0.19,1.897-0.759,1.328-1.708c-1.328-1.328-4.743,0.949-5.312,1.897
		C117.24,329.887,118.568,329.887,120.085,328.179C121.982,327.42,119.137,328.748,120.085,328.179z M129.002,324.575
		c2.466-1.708-3.984-1.897-3.984,0.19C126.156,325.713,127.484,325.713,129.002,324.575
		C129.95,323.816,127.484,325.523,129.002,324.575z M578.231,525.286c-0.759-0.569,18.592-12.71,19.54-11.382
		C599.479,516.56,581.646,527.563,578.231,525.286z M543.705,518.836c-5.691-3.604,5.312-4.742,6.45-4.553
		C549.586,514.283,546.361,520.733,543.705,518.836z M600.617,514.663c0.569,0.568,5.502-13.659,5.691-14.229
		c-0.189,0.759,4.363,8.916,5.312,6.829C610.861,508.972,601.945,515.801,600.617,514.663z M548.447,508.213
		c-1.896-2.087-4.932,0.569-7.777-1.708c-1.328-0.948,0.379-7.398-1.518-7.398c-0.569,0.569-1.139,0.948-1.708,1.328
		c0.948-1.328,1.708-2.846,2.467-4.363c-2.277-1.707-3.984,4.743-5.502,2.656c-2.656-3.984-3.794-6.45-8.916-5.881
		c-7.209,0.759-21.438,9.105-28.646,6.64c-1.138-0.38,0.38-14.039,0.759-17.264c0.949-8.537,2.656-15.366,13.849-15.366
		c3.604,0,10.435-7.589,12.521-10.624c3.414-5.122,4.742-2.087,8.347-0.759c2.087,0.759,2.466-4.743,4.933-5.312
		c2.846-0.759,7.588-3.795,10.244-0.38s-4.363,4.363,2.466,9.106c11.383,7.968,5.122-11.952,11.004-11.952
		c3.604,0,4.553,16.125,6.07,17.833c4.363,4.363,8.347,11.762,8.157,17.643C574.059,490.569,557.174,511.248,548.447,508.213z
		 M307.897,497.778c-1.897-1.896-5.502-11.572-6.64-14.797c-2.656-7.02-8.727-21.438-6.071-29.025
		c3.225-8.727,2.276-10.624-0.379-20.109c-1.328-4.933-7.209-6.829-5.501-12.521c1.328-4.363,0.949-11.003-5.312-10.055
		c-3.415,0.569-3.225-4.363-7.209-4.363c-3.604,0-7.588,2.846-11.192,3.415c-8.158,1.138-15.177,1.707-20.868-5.502
		c-1.328-1.707-8.157-12.521-7.968-12.521c-1.328,0,1.138-14.987,0.379-16.315c-2.846-5.691,8.347-15.746,11.762-18.591
		c6.64-5.881,5.691-15.367,15.935-13.659c7.399,1.328,17.454-7.02,25.801-4.743c2.086,0.569,0.569,5.122,0.759,6.071
		c1.138,4.363,7.778,2.276,9.675,5.691c5.502,9.296,10.055-3.984,16.125-0.948c3.415,1.707,9.296,3.604,13.091,2.466
		c2.466,0,4.932,0,7.208,0.19c1.139-1.328,1.897-2.846,2.277-4.553c0,0,1.518-6.64,0.948-7.398c-1.328-2.466-5.502,1.328-7.778,0
		c0.189,0.189-16.884-4.174-11.383-7.778c2.656-1.707,7.589-1.707,10.435-3.604c1.518-1.139,21.058,4.173,16.884-2.087
		c-4.933-7.399-7.778-1.897-6.45-10.434c0.189-1.138-5.881,1.518-6.64,2.276c-1.138,0.949,2.087,1.897,2.087,1.708
		c-3.035,3.604-5.312-0.569-6.829-2.656c-1.328-1.708-10.813,7.968-5.502,12.141c-2.276,0-8.537,2.276-9.865,1.708
		c-4.363-1.708,2.656,8.537-1.896,7.778c-0.949-0.759-1.708-1.707-2.087-2.846c0.759-0.189,1.328-0.569,1.896-0.948
		c-0.189,2.656-7.019-8.347-6.829-8.158c-0.949-1.138-10.813-7.968-12.141-7.398c-4.363,2.466,10.054,10.244,11.192,11.572
		c-2.276-2.656-4.743,3.794-4.932,4.932c0.569-3.604-11.572-15.556-14.228-13.659c-0.569,0.379-11.383,5.122-10.055,5.122
		c-4.553,0-5.312,6.45-7.399,8.727c-8.727,9.485-15.366,0.949-14.417-8.158c0.759-7.019,5.881-3.225,11.572-3.604
		c9.485-0.948-2.087-10.434-2.277-10.813c0,1.328,15.177-7.399,16.315-8.537c0.569-0.569,8.537-4.553,7.778-5.122
		c-2.846-1.897,0.379-4.933,2.087-6.071c0,1.138-0.759,2.656-0.379,3.604c0.379,1.328,3.604-1.707,3.984-0.379
		c1.328,3.415-3.604,0.949-3.984,1.328c-3.225,3.225,14.797,2.087,14.417,1.897c5.312,2.466,3.794-4.553,5.123-6.071
		c3.604-3.604,4.742,2.846,3.035-3.225c-0.38-1.138,10.055-0.759,9.106-2.466c-1.519-2.466-8.158,0.379-10.624-0.759
		c-6.83-3.036,3.794-7.02,0.948-10.434c-1.328-1.518-9.295,5.122-10.244,6.83c-0.759,1.518-0.189,3.415,1.708,4.173
		c2.466,0.759-2.656,4.743-2.846,5.691c-3.225,8.537-6.071,0.569-8.347-2.087c-2.276-0.949-6.071,1.328-7.968-0.569
		c-4.743-4.553,12.331-18.591,17.264-20.488c5.501-1.897,32.63-5.122,35.854,3.415c1.139,3.036-11.762-0.189-12.521,0.759
		c-1.328,1.328,10.055,8.917,9.865,5.312c-0.76-0.569-1.328-1.138-2.087-1.708c4.932-1.328,8.157-0.379,9.105-5.691
		c-0.189,1.138,22.196,0.759,23.334-1.138c1.139-1.897-4.363-2.087-3.794-2.466c1.518-1.518,17.453,5.312,17.453,2.466
		c0,2.656-9.675-13.28,0-6.83c2.087,1.328,6.83,12.141,5.122,11.572c8.727,3.415-0.569-10.055-0.569-9.675
		c0,1.518,9.296-3.984,8.158-3.225c2.846-2.087,4.933-2.087,6.26-3.415c2.277-2.277,16.126,0.569,16.126-4.174
		c0,0.19-19.54-2.276-19.351-3.225c0.379-2.276,37.752,5.691,37.563,7.02c0,0.759-5.313,2.845-4.553,3.604
		c-0.19-0.189,12.71,0,13.09,0c3.035-0.948,16.125-0.189,18.591,1.139c2.467,1.328,6.071,4.363,8.916,3.035
		c0.38-0.189,11.004-0.189,9.486-2.087c0.948,1.138,25.61,2.276,28.835,2.656c6.071,0.379,17.644,5.312,22.955,3.225
		c-0.189-0.759-0.38-1.518-0.759-2.086c6.64-1.708,34.717,4.173,39.27,9.865c-3.604,0-9.864-3.225-13.279-2.276
		c-0.189,0.759,0.189,1.518,0.759,2.087c-0.948,0-2.087,0-3.035,0.189c-0.569,0.569,8.157,3.604,8.727,4.174
		c0.568,0.569-12.142,3.983-12.711,4.363c-9.485,4.743,4.363,11.951,2.087,12.9c-3.983,1.518,3.415,12.521-8.727-0.379
		c-3.983-4.174-2.846-4.553-2.846-9.296c0-0.759,2.276-8.916-2.087-6.829c-4.174,1.897,0.949,2.276-6.26,1.138
		c-4.743-0.759-0.949,4.743-3.984,5.501c-2.846,0.569-8.537-0.569-11.762-0.569c-3.226,0-11.383,4.743-8.727,9.106
		c2.087,3.415,7.02,0.759,9.864,2.466c3.795,2.276,8.158,7.588,8.348,12.142c0.379,6.26-0.759,10.813-6.83,10.813
		c0.759,0-4.173,8.727-4.173,8.347c0,3.415,15.366,8.347,3.983,11.382c-1.707-6.83-14.986-11.952-14.986-12.9
		c0-1.897-11.193,1.518-3.795,5.881c1.518,0.759,5.881,0.948,7.968,0.948c-8.347,3.225,0,12.331,2.087,15.746
		c8.348,14.417-11.192,13.659-16.505,21.816c-2.846-6.26-12.521,0.948-4.363,7.398c10.813,8.537-3.035,17.643-2.846,18.212
		c-1.518-2.467-5.501-10.055-10.623-10.055c-6.45,0,9.485,25.99,9.485,26.369c0,3.035-9.106-11.951-8.916-11.951
		c-3.795-5.691-2.656-10.244-5.122-16.884c-0.569-1.708-1.139-7.019-4.174-3.984c-1.139,1.138-3.984,1.518-3.226-1.328
		c1.328-4.173-7.588-12.9-11.003-11.952c-5.501,1.518-6.07,7.209-11.003,8.727c-9.675,3.036-4.743,13.849-8.916,19.919
		c-6.45,9.296-15.177-28.456-15.177-28.456c-2.656,0.948-3.226,4.173-6.45,0.189c0.569-0.379,2.087-0.379,2.087-1.518
		c-0.759-7.209-30.543-7.588-35.665-10.244c-8.917-4.553-9.485-10.244-6.071,2.466c0.759,2.845,4.743,0.759,4.174,2.656
		c-1.897,5.691,9.865-2.466,8.916-2.087c-0.948,0.19,2.087,4.174,2.276,4.174c7.02,3.604,4.363,3.984,1.708,9.295
		c-3.604,6.83-15.746,12.331-22.386,14.987c-9.106,3.415-16.315-30.543-24.473-35.286c-0.759-0.379-0.948,2.466-0.948,2.656
		c-0.759-0.949-2.276-3.415-3.415-3.794c2.276,0.759,13.279,25.421,14.229,29.215c0.568,2.466,8.536,12.141,10.623,13.28
		c3.604,1.896,10.244-1.139,13.659-2.656c1.897,11.952-10.055,18.212-15.746,26.37c-5.312,7.398-11.572,12.33-6.64,22.006
		c3.226,6.26,1.708,13.279-4.553,16.505c-2.087,0.948-7.02,5.501-7.02,7.777c0,2.846,3.415,4.933,0.569,7.968
		c-2.656,2.656-5.691,1.897-4.933,6.64c0.759,4.174-10.055,13.091-13.279,14.608C318.521,499.106,311.122,498.728,307.897,497.778z
		 M372.777,340.32c4.553-2.276-1.518-6.45-1.328-8.916c0,0,2.846,0.569,2.846-0.759c0-1.897-3.983-3.036-3.983-2.846
		c0-2.087-6.261-1.897-4.363-5.501c0.759-1.518,4.363-0.949,4.553-1.328c1.328-3.984-18.022-3.604-8.537,6.83
		C364.62,330.835,364.24,344.684,372.777,340.32z M359.309,478.238c-5.502-3.225,0.948-10.434,0.379-14.417
		c-0.759-6.83,7.968-8.158,10.434-14.039C372.398,454.525,366.707,482.602,359.309,478.238L359.309,478.238z M576.335,446.178
		c-3.794-1.138-9.865-10.434-13.09-4.933c-1.708,2.846-7.968,0.19-10.244-1.138c0.379,0.189-1.708-7.02-6.83-8.916
		c-3.035-1.139-4.742-3.415-6.64-6.071c0.569-0.948,1.518-1.328,2.846-1.328c2.466,0,2.656,3.795,3.604,5.122
		c2.087,2.656,5.312-4.173,8.727-2.466c4.363,1.897,8.727,3.415,12.71,6.07c0.949,0.569,11.383,14.608,11.572,14.418
		C578.231,446.367,577.283,446.178,576.335,446.178z M523.217,443.332c0.759-1.138,5.501-3.983,6.829-1.707
		C529.477,440.677,520.939,446.747,523.217,443.332L523.217,443.332z M501.21,440.677c-1.518-0.19-14.797-1.708-14.797-3.415
		c0-3.604,20.299,2.276,19.54,3.604C505.194,441.814,501.399,440.866,501.21,440.677z M483.378,434.227
		c-4.743-2.656-13.28-24.473-17.453-24.473c5.312,0,8.536,6.829,12.71,9.296C481.86,420.946,489.638,437.641,483.378,434.227z
		 M514.68,433.847c-4.553-7.398,4.174-17.643,11.762-15.177c3.415,1.139-8.537,2.276-7.398,2.087
		c-7.968,1.518,2.655,3.226,3.225,3.226c-3.983-0.569-0.379,7.398-1.138,8.157c-1.518,1.138-2.467-3.604-3.415-3.984
		C515.628,427.207,516.576,437.072,514.68,433.847L514.68,433.847z M505.004,429.673c-2.276-1.138-7.208,0.569-8.727-1.707
		c-0.759-1.138-3.794-11.383,0-9.296c4.174,2.276,10.435-15.366,15.746-9.675C515.628,411.271,509.937,432.329,505.004,429.673z
		 M533.65,429.673c-2.466-0.568,2.087-1.707,3.225-0.568C536.116,430.053,534.979,430.053,533.65,429.673
		C532.512,429.294,534.599,430.053,533.65,429.673z M531.753,422.085c-0.759-0.759,0.19-5.312,1.708-5.312
		C534.979,416.583,531.374,422.654,531.753,422.085z M286.839,414.496C286.839,412.789,286.839,415.445,286.839,414.496
		C286.839,414.307,286.839,414.687,286.839,414.496z M524.165,407.098c-1.708-3.983-1.708-0.189-3.794-1.896
		c-0.38-0.19,6.26-3.035,6.26-4.743c0,1.518,3.415,4.363,2.467,6.64c-0.569-0.379-1.328-0.568-2.087-0.568
		c0,0.759,0.189,1.518,0.189,2.086C525.113,408.806,525.493,409.564,524.165,407.098z M434.433,407.856
		c-0.189-0.379-1.328-7.398,0-6.829C439.365,403.304,435.381,409.564,434.433,407.856z M521.698,392.49
		c-2.845-1.518-2.655,0.759-5.501-2.276c-0.38-0.379-4.743-9.675-0.759-9.485c4.553,0.189,1.328,5.881,1.707,7.398
		C517.146,388.317,524.165,393.818,521.698,392.49z M123.88,381.108c-0.379-0.19-5.501-0.759-5.501-0.759
		c1.328-0.759,3.983-2.466,4.173-2.466c1.708-0.759,7.019,0,8.158,1.708C131.089,380.159,124.639,381.108,123.88,381.108z
		 M490.396,380.539c-2.466-2.466,3.035-3.415,3.226-2.656C493.622,378.832,491.725,381.867,490.396,380.539
		C489.068,379.211,490.966,381.297,490.396,380.539z M116.102,376.934c-1.518-1.518-16.125-6.829-16.125-4.553
		c0-5.501,20.868,1.328,20.109,3.984C118.758,376.934,117.43,377.124,116.102,376.934
		C115.912,376.745,116.292,377.313,116.102,376.934z M512.593,371.812c-1.897-1.138-1.707-5.122,0.569-5.881
		C515.438,365.362,513.541,372.381,512.593,371.812C512.403,371.623,513.352,372.381,512.593,371.812z M526.821,351.324
		c-0.949-1.328-1.519-2.656-2.087-4.174C526.631,342.787,526.821,354.928,526.821,351.324
		C526.821,350.944,526.821,352.272,526.821,351.324z M529.477,347.719c-0.569-1.328,2.087-2.277,2.087-0.949
		S530.805,348.478,529.477,347.719z M534.029,346.012c-1.327-1.897-6.829-1.328-8.347-1.328c1.707,0,7.02-2.845,8.537-3.983
		c6.64-4.933-0.38-4.933,1.896-9.865c0.38-0.759,10.624,9.865,3.795,12.9C536.496,345.063,535.168,346.012,534.029,346.012z
		 M297.273,338.423c-4.933-2.466,2.846-1.138,2.846-0.759C299.929,339.751,298.791,339.182,297.273,338.423
		C295.376,337.475,299.36,339.372,297.273,338.423z M533.65,327.989c-0.189-0.189-0.569-7.019-0.948-6.829
		c0,0,7.588,3.415,8.347,4.173C541.238,325.144,534.599,329.507,533.65,327.989z M530.615,318.125
		c-1.518-1.708-8.348-14.797-9.676-14.418c3.036-0.948,12.331,12.9,12.331,14.987C532.322,319.073,531.374,318.883,530.615,318.125
		C530.235,317.556,531.374,318.883,530.615,318.125z M166.943,315.658c-1.328-0.948,1.897-7.019,5.691-7.019
		c-2.656,0,3.604,6.071,3.415,6.26C174.532,316.607,168.271,315.848,166.943,315.658L166.943,315.658z M46.668,312.054
		c-1.708-0.948-1.897-1.707-0.759-2.656c1.707-0.569,4.363,2.466,4.173,3.984C48.755,313.761,47.617,313.382,46.668,312.054
		C44.961,310.536,47.427,312.813,46.668,312.054z M263.885,309.588c1.328-0.19,2.466-0.949,3.415-1.897
		c-0.948-0.569-1.897-0.948-3.035-1.138c-0.19-0.189,1.897-2.656,2.276-2.846c4.933-1.707-1.897-4.363-1.897-4.553
		c1.328-3.415,0.189-6.26,4.363-3.794c-0.759,0.759-1.518,1.518-2.276,2.277c1.707,1.138,7.968,6.26,8.157,7.398
		C276.026,309.967,264.264,309.398,263.885,309.588C264.454,309.208,263.126,309.967,263.885,309.588z M255.727,306.932
		c-1.328-3.415,4.933-10.434,7.399-6.64C264.833,303.327,256.676,309.398,255.727,306.932
		C255.538,306.363,255.917,307.311,255.727,306.932z M12.9,295.549c0-1.328,4.553-1.138,4.743-1.328
		C17.264,294.791,12.9,295.739,12.9,295.549L12.9,295.549z M197.866,287.392c-3.036-1.707-5.501-7.968-3.415-11.382
		c1.897-1.708,3.794-3.415,5.691-4.933c1.518-3.035-2.846-4.363-2.276-5.881c3.035-7.778-25.611-8.727-10.624-10.434
		c5.312-0.569,9.865-3.794,14.987-4.363c7.778-0.759,15.366,0.38,23.334-0.948c11.383-1.897,22.955-0.949,33.768,0.948
		c-5.501-0.948-7.588,5.312-10.434,8.158c-1.518,1.518-10.434,5.312-10.624,5.881c-0.189,0.569,4.174,3.415,5.312,3.984
		c-0.949-0.379-5.691-1.518-6.83-1.518c0,0-1.138,3.035-1.518,2.846c1.518,0.189,3.035,0.379,4.553,0.569
		c-1.328-1.518-18.401,5.881-20.678,6.64c-5.501,1.897-9.295,1.897-12.9,7.209C203.747,287.961,202.04,289.668,197.866,287.392z
		 M162.77,284.167c-1.518-1.518-3.035-2.846-4.553-4.174c-1.897,0.379-3.604,0.569-5.501,0.379c0,0,14.797-3.415,15.177-4.173
		c0.19-0.38-7.398-7.588-8.157-7.588c-1.708-0.19-13.849,2.466-13.849-0.759c0-3.035,6.261-4.932,8.727-5.122
		c-0.569,0.569-3.035,2.846-2.466,3.604c-2.466-3.035,14.797-1.138,13.659-0.569c4.174-2.277,7.399,6.64,9.106,7.968
		c8.917,6.45-4.932,2.656-5.122,4.173c0,0.949,2.277,4.553,0.19,4.933c-0.569,0.189-4.553-2.276-4.553-0.759
		c0.759,0.759,1.708,1.707,2.466,2.466C165.995,285.685,164.288,285.305,162.77,284.167
		C161.821,283.598,164.667,285.305,162.77,284.167z M144.179,282.08c-1.708-0.19-3.604-0.19-5.312,0
		c-1.328-0.759,3.415-3.036,4.743-2.656C145.696,280.183,146.834,283.598,144.179,282.08
		C143.23,281.701,145.317,282.649,144.179,282.08z M242.258,281.89c-1.328,0-2.276-0.379-2.846-1.328
		c1.138-3.984,11.003-2.656,13.659-1.328C250.226,281.131,245.483,284.167,242.258,281.89
		C241.499,281.321,243.017,282.459,242.258,281.89z M108.324,272.784c-1.897-0.379-4.363-1.518-6.071-2.466
		c0.759,0,6.83-0.189,6.83-0.948s-4.363-0.759-4.933-0.949c0.569-0.379,1.328-0.569,1.897-0.948
		c-0.569-0.569-1.328-0.949-2.086-1.139c2.086-4.173,20.488,1.328,20.678-1.707c0,0.948-1.518,2.656-1.897,3.604
		c1.138,0.379,2.086,1.138,3.225,1.707C121.982,272.025,112.497,273.354,108.324,272.784
		C107.565,272.595,110.6,273.164,108.324,272.784z M128.053,272.405c-1.138-1.328,4.743-2.276,4.174-1.138
		C131.658,272.405,129.002,273.543,128.053,272.405z M354.755,268.611c-7.588-3.036,12.711-13.849,15.746-9.106
		c0.189,0.189-18.401,3.225-10.813,9.865C357.98,269.559,356.463,269.37,354.755,268.611z M96.182,267.283
		c-2.656-2.656,13.09-5.312,16.125-3.984C109.083,263.868,98.08,269.18,96.182,267.283z M131.848,266.713
		c0-0.569-2.087-1.707-2.656-2.086c3.415,0.189,5.502-1.897,8.727-1.897C139.436,262.729,131.848,269.749,131.848,266.713z
		 M139.625,265.196c-1.518-2.466,7.968-2.466,6.64-1.328C145.696,264.248,140.195,266.145,139.625,265.196z M155.372,261.591
		c-2.087-0.189-3.984-0.379-6.071-0.569c-1.518-1.328,14.987-1.139,16.884-0.759C162.58,262.35,159.735,261.971,155.372,261.591
		L155.372,261.591z M297.463,259.505c-0.759-0.38-1.328-0.949-2.086-1.328c1.138-0.379,2.276-0.759,3.415-0.949
		c-0.569,0.379-7.398-0.759-7.398-2.276c0-2.656,10.434,0.19,11.572,1.138c1.518-2.846,6.07-4.363,9.675-1.708
		c0.569,0.379-7.778,2.466-7.778,0.949c0,0.379,5.881,3.225,4.743,3.794c-2.846,1.139-3.794-2.466-5.691-2.656
		C299.929,255.71,302.016,261.402,297.463,259.505z M166.564,258.366c0,0-8.727-1.328-8.157-1.328c2.276,0,4.363-0.19,6.64-0.569
		c0-0.759-0.379-1.328-1.138-1.518c1.138,0.19,2.466,0.19,3.604,0c1.708-1.138-3.604-2.087,0.759-2.276
		c0.379,0,10.813,0.569,9.675-1.328c-0.19-0.379-9.865-0.759-9.865-0.759c4.173-4.174,23.713-1.897,29.784-2.656
		C194.451,249.45,169.979,260.643,166.564,258.366z M156.889,254.003c-6.64-1.518,7.019-3.984,5.881-1.707
		C161.821,254.003,158.407,254.382,156.889,254.003C154.423,253.434,158.786,254.382,156.889,254.003z"/>
</g>
</svg>
